<svg width="2032" height="745" viewBox="0 0 2032 745" fill="none" xmlns="http://www.w3.org/2000/svg">
<path d="M282.605 249.138H327.6L374.281 328.456L422.088 249.138H466.52L336.036 468.565L316.913 426.88L354.034 363.773L282.605 249.138Z" fill="#E5AB08"/>
<path d="M271.919 216.714H306.79L250.547 122.343H217.363L202.178 296.611L124 389.824L298.916 540.355L330.412 619.673L417.588 619.094L449.647 539.776L624 389.245L545.26 298.348L528.387 123.501H498.578L442.335 215.556L476.081 216.135L501.953 181.397L513.764 313.401L575.069 385.771L480.018 468.563L505.327 407.772L474.394 392.719L397.341 577.987H352.346L273.044 390.982L242.673 407.772L269.107 470.3L171.807 386.929L234.236 313.98L246.047 181.976L271.919 216.714Z" fill="#CFE0D9"/>
<path d="M752.04 331.654V275.654H763.24V331.654H752.04ZM716.76 331.654V275.654H727.96V331.654H716.76ZM726.52 307.574V298.534H753.88V307.574H726.52ZM769.864 331.654V291.974H781.064V331.654H769.864ZM770.344 285.654V275.254H780.744V285.654H770.344ZM790.098 314.134L788.898 275.654H800.898L799.618 314.134H790.098ZM788.018 331.654V318.854H801.778V331.654H788.018ZM807.087 345.734V337.574H810.607C811.674 337.574 812.474 337.281 813.007 336.694C813.54 336.161 813.807 335.308 813.807 334.134V332.214H807.647V319.414H822.047V334.134C822.047 337.388 821.06 340.134 819.087 342.374C817.167 344.614 814.34 345.734 810.607 345.734H807.087Z" fill="#F2B705"/>
<path d="M716.76 437.654V381.654H727.96V437.654H716.76ZM734.23 401.814L738.55 381.654H750.23L741.91 401.814H734.23ZM755.88 437.654V397.974H767.08V402.694C768.36 400.934 770.013 399.548 772.04 398.534C774.12 397.521 776.493 397.014 779.16 397.014C782.147 397.014 784.707 397.601 786.84 398.774C789.027 399.948 790.76 401.654 792.04 403.894C793.533 401.761 795.48 400.081 797.88 398.854C800.28 397.628 802.947 397.014 805.88 397.014C811.16 397.014 815.16 398.614 817.88 401.814C820.653 404.961 822.04 409.521 822.04 415.494V437.654H810.92V416.534C810.92 413.281 810.307 410.801 809.08 409.094C807.853 407.334 805.907 406.454 803.24 406.454C800.627 406.454 798.52 407.414 796.92 409.334C795.373 411.201 794.6 413.814 794.6 417.174V437.654H783.48V416.534C783.48 413.281 782.84 410.801 781.56 409.094C780.28 407.334 778.307 406.454 775.64 406.454C773.08 406.454 771 407.414 769.4 409.334C767.853 411.201 767.08 413.814 767.08 417.174V437.654H755.88ZM849.644 437.654L870.044 381.654H882.764L903.244 437.654H891.404L874.124 387.734H878.684L861.404 437.654H849.644ZM859.084 425.094L862.044 416.374H890.844L893.804 425.094H859.084ZM906.271 437.654V397.974H917.471V403.814C918.751 401.734 920.484 400.081 922.671 398.854C924.911 397.628 927.524 397.014 930.511 397.014C935.524 397.014 939.364 398.614 942.031 401.814C944.697 404.961 946.031 409.521 946.031 415.494V437.654H934.831V416.534C934.831 413.281 934.164 410.801 932.831 409.094C931.551 407.334 929.497 406.454 926.671 406.454C924.004 406.454 921.791 407.414 920.031 409.334C918.324 411.201 917.471 413.814 917.471 417.174V437.654H906.271ZM969.978 438.614C966.298 438.614 962.964 437.708 959.978 435.894C957.044 434.081 954.724 431.601 953.018 428.454C951.311 425.254 950.458 421.681 950.458 417.734C950.458 413.734 951.311 410.188 953.018 407.094C954.724 403.948 957.044 401.494 959.978 399.734C962.964 397.921 966.298 397.014 969.978 397.014C972.911 397.014 975.444 397.548 977.578 398.614C979.764 399.681 981.524 401.174 982.858 403.094V380.054H994.058V437.654H982.858V432.214C981.631 433.921 979.978 435.414 977.898 436.694C975.871 437.974 973.231 438.614 969.978 438.614ZM972.538 428.854C974.618 428.854 976.458 428.374 978.058 427.414C979.658 426.454 980.911 425.148 981.818 423.494C982.724 421.788 983.178 419.894 983.178 417.814C983.178 415.681 982.724 413.788 981.818 412.134C980.911 410.481 979.658 409.174 978.058 408.214C976.458 407.254 974.618 406.774 972.538 406.774C970.511 406.774 968.671 407.254 967.018 408.214C965.418 409.174 964.164 410.481 963.258 412.134C962.351 413.734 961.898 415.601 961.898 417.734C961.898 419.868 962.351 421.788 963.258 423.494C964.164 425.148 965.418 426.454 967.018 427.414C968.671 428.374 970.511 428.854 972.538 428.854ZM999.943 437.654V397.974H1011.14V403.974C1012.21 402.001 1013.54 400.454 1015.14 399.334C1016.74 398.161 1018.56 397.574 1020.58 397.574H1025.46V407.494H1019.46C1017.49 407.494 1015.89 408.001 1014.66 409.014C1013.44 410.028 1012.53 411.548 1011.94 413.574C1011.41 415.548 1011.14 417.974 1011.14 420.854V437.654H999.943ZM1046.11 438.614C1042 438.614 1038.37 437.761 1035.23 436.054C1032.08 434.294 1029.63 431.894 1027.87 428.854C1026.11 425.761 1025.23 422.214 1025.23 418.214C1025.23 414.108 1026.08 410.454 1027.79 407.254C1029.55 404.054 1032 401.548 1035.15 399.734C1038.29 397.921 1041.95 397.014 1046.11 397.014C1050.05 397.014 1053.55 397.868 1056.59 399.574C1059.63 401.281 1062 403.628 1063.71 406.614C1065.41 409.548 1066.27 412.908 1066.27 416.694C1066.27 417.228 1066.27 417.841 1066.27 418.534C1066.27 419.174 1066.21 419.841 1066.11 420.534H1033.23V413.814H1054.91C1054.75 411.468 1053.84 409.601 1052.19 408.214C1050.59 406.774 1048.59 406.054 1046.19 406.054C1044.37 406.054 1042.69 406.454 1041.15 407.254C1039.65 408.054 1038.45 409.281 1037.55 410.934C1036.69 412.534 1036.27 414.588 1036.27 417.094V419.414C1036.27 421.441 1036.67 423.228 1037.47 424.774C1038.32 426.268 1039.47 427.441 1040.91 428.294C1042.4 429.094 1044.11 429.494 1046.03 429.494C1047.89 429.494 1049.47 429.094 1050.75 428.294C1052.03 427.441 1053.01 426.348 1053.71 425.014H1065.15C1064.4 427.574 1063.12 429.894 1061.31 431.974C1059.55 434.001 1057.36 435.628 1054.75 436.854C1052.19 438.028 1049.31 438.614 1046.11 438.614ZM1042.83 393.254L1050.03 377.414H1060.51L1050.67 393.254H1042.83ZM1085.5 438.614C1080.16 438.614 1075.79 437.361 1072.38 434.854C1068.96 432.348 1067.04 429.068 1066.62 425.014H1078.06C1078.43 426.561 1079.34 427.814 1080.78 428.774C1082.22 429.681 1083.92 430.134 1085.9 430.134C1088.08 430.134 1089.74 429.761 1090.86 429.014C1092.03 428.214 1092.62 427.254 1092.62 426.134C1092.62 425.228 1092.19 424.508 1091.34 423.974C1090.48 423.388 1089.02 422.988 1086.94 422.774C1086.19 422.668 1085.15 422.508 1083.82 422.294C1082.54 422.081 1081.5 421.894 1080.7 421.734C1078.46 421.308 1076.4 420.614 1074.54 419.654C1072.72 418.641 1071.28 417.334 1070.22 415.734C1069.15 414.081 1068.62 412.081 1068.62 409.734C1068.62 406.161 1069.95 403.148 1072.62 400.694C1075.28 398.241 1079.2 397.014 1084.38 397.014C1089.6 397.014 1093.71 398.161 1096.7 400.454C1099.74 402.748 1101.44 405.921 1101.82 409.974H1091.02C1090.86 408.534 1090.14 407.441 1088.86 406.694C1087.58 405.948 1086.11 405.574 1084.46 405.574C1082.43 405.574 1080.91 405.921 1079.9 406.614C1078.88 407.308 1078.38 408.161 1078.38 409.174C1078.38 410.828 1080.03 411.948 1083.34 412.534C1083.82 412.588 1084.48 412.694 1085.34 412.854C1086.24 412.961 1087.15 413.094 1088.06 413.254C1089.02 413.361 1089.76 413.468 1090.3 413.574C1091.9 413.788 1093.44 414.161 1094.94 414.694C1096.48 415.174 1097.84 415.841 1099.02 416.694C1100.24 417.548 1101.2 418.668 1101.9 420.054C1102.59 421.441 1102.94 423.148 1102.94 425.174C1102.94 427.841 1102.27 430.188 1100.94 432.214C1099.6 434.241 1097.63 435.814 1095.02 436.934C1092.46 438.054 1089.28 438.614 1085.5 438.614ZM1168.84 437.654V381.654H1180.04V437.654H1168.84ZM1133.56 437.654V381.654H1144.76V437.654H1133.56ZM1143.32 413.574V404.534H1170.68V413.574H1143.32ZM1206.34 438.614C1202.23 438.614 1198.61 437.761 1195.46 436.054C1192.31 434.294 1189.86 431.894 1188.1 428.854C1186.34 425.761 1185.46 422.214 1185.46 418.214C1185.46 414.108 1186.31 410.454 1188.02 407.254C1189.78 404.054 1192.23 401.548 1195.38 399.734C1198.53 397.921 1202.18 397.014 1206.34 397.014C1210.29 397.014 1213.78 397.868 1216.82 399.574C1219.86 401.281 1222.23 403.628 1223.94 406.614C1225.65 409.548 1226.5 412.908 1226.5 416.694C1226.5 417.228 1226.5 417.841 1226.5 418.534C1226.5 419.174 1226.45 419.841 1226.34 420.534H1193.46V413.814H1215.14C1214.98 411.468 1214.07 409.601 1212.42 408.214C1210.82 406.774 1208.82 406.054 1206.42 406.054C1204.61 406.054 1202.93 406.454 1201.38 407.254C1199.89 408.054 1198.69 409.281 1197.78 410.934C1196.93 412.534 1196.5 414.588 1196.5 417.094V419.414C1196.5 421.441 1196.9 423.228 1197.7 424.774C1198.55 426.268 1199.7 427.441 1201.14 428.294C1202.63 429.094 1204.34 429.494 1206.26 429.494C1208.13 429.494 1209.7 429.094 1210.98 428.294C1212.26 427.441 1213.25 426.348 1213.94 425.014H1225.38C1224.63 427.574 1223.35 429.894 1221.54 431.974C1219.78 434.001 1217.59 435.628 1214.98 436.854C1212.42 438.028 1209.54 438.614 1206.34 438.614ZM1231.19 437.654V397.974H1242.39V403.974C1243.46 402.001 1244.79 400.454 1246.39 399.334C1247.99 398.161 1249.81 397.574 1251.83 397.574H1256.71V407.494H1250.71C1248.74 407.494 1247.14 408.001 1245.91 409.014C1244.69 410.028 1243.78 411.548 1243.19 413.574C1242.66 415.548 1242.39 417.974 1242.39 420.854V437.654H1231.19ZM1261.66 437.654V397.974H1272.86V403.814C1274.14 401.734 1275.87 400.081 1278.06 398.854C1280.3 397.628 1282.91 397.014 1285.9 397.014C1290.91 397.014 1294.75 398.614 1297.42 401.814C1300.09 404.961 1301.42 409.521 1301.42 415.494V437.654H1290.22V416.534C1290.22 413.281 1289.55 410.801 1288.22 409.094C1286.94 407.334 1284.89 406.454 1282.06 406.454C1279.39 406.454 1277.18 407.414 1275.42 409.334C1273.71 411.201 1272.86 413.814 1272.86 417.174V437.654H1261.66ZM1321.05 438.614C1318.11 438.614 1315.58 438.081 1313.45 437.014C1311.31 435.948 1309.66 434.508 1308.49 432.694C1307.37 430.881 1306.81 428.881 1306.81 426.694C1306.81 422.588 1308.27 419.414 1311.21 417.174C1314.19 414.881 1318.09 413.734 1322.89 413.734C1325.18 413.734 1327.13 413.894 1328.73 414.214C1330.38 414.534 1331.71 414.854 1332.73 415.174V413.254C1332.73 410.641 1331.95 408.748 1330.41 407.574C1328.91 406.401 1326.99 405.814 1324.65 405.814C1323.05 405.814 1321.61 406.134 1320.33 406.774C1319.05 407.414 1318.22 408.588 1317.85 410.294H1307.37C1307.69 407.468 1308.62 405.068 1310.17 403.094C1311.77 401.121 1313.82 399.628 1316.33 398.614C1318.83 397.548 1321.61 397.014 1324.65 397.014C1330.62 397.014 1335.31 398.428 1338.73 401.254C1342.19 404.028 1343.93 408.028 1343.93 413.254V421.494C1343.93 423.521 1344.03 425.041 1344.25 426.054C1344.51 427.014 1344.91 427.628 1345.45 427.894C1345.98 428.161 1346.67 428.294 1347.53 428.294H1347.85V437.654H1345.37C1342.49 437.654 1340.09 437.308 1338.17 436.614C1336.25 435.868 1334.83 434.454 1333.93 432.374C1332.54 434.188 1330.75 435.681 1328.57 436.854C1326.38 438.028 1323.87 438.614 1321.05 438.614ZM1323.69 430.134C1325.23 430.134 1326.54 429.814 1327.61 429.174C1328.73 428.481 1329.66 427.548 1330.41 426.374C1331.15 425.148 1331.71 423.788 1332.09 422.294C1331.02 421.974 1329.77 421.681 1328.33 421.414C1326.94 421.094 1325.53 420.934 1324.09 420.934C1322.43 420.934 1321.02 421.361 1319.85 422.214C1318.67 423.014 1318.09 424.188 1318.09 425.734C1318.09 427.014 1318.59 428.081 1319.61 428.934C1320.62 429.734 1321.98 430.134 1323.69 430.134ZM1322.97 393.254L1330.17 377.414H1340.65L1330.81 393.254H1322.97ZM1351.58 437.654V397.974H1362.78V403.814C1364.06 401.734 1365.8 400.081 1367.98 398.854C1370.22 397.628 1372.84 397.014 1375.82 397.014C1380.84 397.014 1384.68 398.614 1387.34 401.814C1390.01 404.961 1391.34 409.521 1391.34 415.494V437.654H1380.14V416.534C1380.14 413.281 1379.48 410.801 1378.14 409.094C1376.86 407.334 1374.81 406.454 1371.98 406.454C1369.32 406.454 1367.1 407.414 1365.34 409.334C1363.64 411.201 1362.78 413.814 1362.78 417.174V437.654H1351.58ZM1415.29 438.614C1411.61 438.614 1408.28 437.708 1405.29 435.894C1402.36 434.081 1400.04 431.601 1398.33 428.454C1396.62 425.254 1395.77 421.681 1395.77 417.734C1395.77 413.734 1396.62 410.188 1398.33 407.094C1400.04 403.948 1402.36 401.494 1405.29 399.734C1408.28 397.921 1411.61 397.014 1415.29 397.014C1418.22 397.014 1420.76 397.548 1422.89 398.614C1425.08 399.681 1426.84 401.174 1428.17 403.094V380.054H1439.37V437.654H1428.17V432.214C1426.94 433.921 1425.29 435.414 1423.21 436.694C1421.18 437.974 1418.54 438.614 1415.29 438.614ZM1417.85 428.854C1419.93 428.854 1421.77 428.374 1423.37 427.414C1424.97 426.454 1426.22 425.148 1427.13 423.494C1428.04 421.788 1428.49 419.894 1428.49 417.814C1428.49 415.681 1428.04 413.788 1427.13 412.134C1426.22 410.481 1424.97 409.174 1423.37 408.214C1421.77 407.254 1419.93 406.774 1417.85 406.774C1415.82 406.774 1413.98 407.254 1412.33 408.214C1410.73 409.174 1409.48 410.481 1408.57 412.134C1407.66 413.734 1407.21 415.601 1407.21 417.734C1407.21 419.868 1407.66 421.788 1408.57 423.494C1409.48 425.148 1410.73 426.454 1412.33 427.414C1413.98 428.374 1415.82 428.854 1417.85 428.854ZM1464.94 438.614C1460.83 438.614 1457.2 437.761 1454.06 436.054C1450.91 434.294 1448.46 431.894 1446.7 428.854C1444.94 425.761 1444.06 422.214 1444.06 418.214C1444.06 414.108 1444.91 410.454 1446.62 407.254C1448.38 404.054 1450.83 401.548 1453.98 399.734C1457.12 397.921 1460.78 397.014 1464.94 397.014C1468.88 397.014 1472.38 397.868 1475.42 399.574C1478.46 401.281 1480.83 403.628 1482.54 406.614C1484.24 409.548 1485.1 412.908 1485.1 416.694C1485.1 417.228 1485.1 417.841 1485.1 418.534C1485.1 419.174 1485.04 419.841 1484.94 420.534H1452.06V413.814H1473.74C1473.58 411.468 1472.67 409.601 1471.02 408.214C1469.42 406.774 1467.42 406.054 1465.02 406.054C1463.2 406.054 1461.52 406.454 1459.98 407.254C1458.48 408.054 1457.28 409.281 1456.38 410.934C1455.52 412.534 1455.1 414.588 1455.1 417.094V419.414C1455.1 421.441 1455.5 423.228 1456.3 424.774C1457.15 426.268 1458.3 427.441 1459.74 428.294C1461.23 429.094 1462.94 429.494 1464.86 429.494C1466.72 429.494 1468.3 429.094 1469.58 428.294C1470.86 427.441 1471.84 426.348 1472.54 425.014H1483.98C1483.23 427.574 1481.95 429.894 1480.14 431.974C1478.38 434.001 1476.19 435.628 1473.58 436.854C1471.02 438.028 1468.14 438.614 1464.94 438.614ZM1488.83 437.654V428.694L1508.59 407.254H1489.07V397.974H1521.39V406.934L1501.31 428.374H1521.79V437.654H1488.83ZM1525.13 451.734V443.574H1528.65C1529.72 443.574 1530.52 443.281 1531.05 442.694C1531.59 442.161 1531.85 441.308 1531.85 440.134V438.214H1525.69V425.414H1540.09V440.134C1540.09 443.388 1539.11 446.134 1537.13 448.374C1535.21 450.614 1532.39 451.734 1528.65 451.734H1525.13ZM1583.08 438.614C1580.15 438.614 1577.61 438.081 1575.48 437.014C1573.35 435.948 1571.69 434.508 1570.52 432.694C1569.4 430.881 1568.84 428.881 1568.84 426.694C1568.84 422.588 1570.31 419.414 1573.24 417.174C1576.23 414.881 1580.12 413.734 1584.92 413.734C1587.21 413.734 1589.16 413.894 1590.76 414.214C1592.41 414.534 1593.75 414.854 1594.76 415.174V413.254C1594.76 410.641 1593.99 408.748 1592.44 407.574C1590.95 406.401 1589.03 405.814 1586.68 405.814C1585.08 405.814 1583.64 406.134 1582.36 406.774C1581.08 407.414 1580.25 408.588 1579.88 410.294H1569.4C1569.72 407.468 1570.65 405.068 1572.2 403.094C1573.8 401.121 1575.85 399.628 1578.36 398.614C1580.87 397.548 1583.64 397.014 1586.68 397.014C1592.65 397.014 1597.35 398.428 1600.76 401.254C1604.23 404.028 1605.96 408.028 1605.96 413.254V421.494C1605.96 423.521 1606.07 425.041 1606.28 426.054C1606.55 427.014 1606.95 427.628 1607.48 427.894C1608.01 428.161 1608.71 428.294 1609.56 428.294H1609.88V437.654H1607.4C1604.52 437.654 1602.12 437.308 1600.2 436.614C1598.28 435.868 1596.87 434.454 1595.96 432.374C1594.57 434.188 1592.79 435.681 1590.6 436.854C1588.41 438.028 1585.91 438.614 1583.08 438.614ZM1585.72 430.134C1587.27 430.134 1588.57 429.814 1589.64 429.174C1590.76 428.481 1591.69 427.548 1592.44 426.374C1593.19 425.148 1593.75 423.788 1594.12 422.294C1593.05 421.974 1591.8 421.681 1590.36 421.414C1588.97 421.094 1587.56 420.934 1586.12 420.934C1584.47 420.934 1583.05 421.361 1581.88 422.214C1580.71 423.014 1580.12 424.188 1580.12 425.734C1580.12 427.014 1580.63 428.081 1581.64 428.934C1582.65 429.734 1584.01 430.134 1585.72 430.134ZM1624.25 426.854L1618.81 420.454L1638.33 397.974H1651.37L1624.25 426.854ZM1613.61 437.654V380.054H1624.81V437.654H1613.61ZM1640.57 437.654L1625.61 418.214L1632.33 411.574L1654.25 437.654H1640.57ZM1668.08 438.614C1665.15 438.614 1662.61 438.081 1660.48 437.014C1658.35 435.948 1656.69 434.508 1655.52 432.694C1654.4 430.881 1653.84 428.881 1653.84 426.694C1653.84 422.588 1655.31 419.414 1658.24 417.174C1661.23 414.881 1665.12 413.734 1669.92 413.734C1672.21 413.734 1674.16 413.894 1675.76 414.214C1677.41 414.534 1678.75 414.854 1679.76 415.174V413.254C1679.76 410.641 1678.99 408.748 1677.44 407.574C1675.95 406.401 1674.03 405.814 1671.68 405.814C1670.08 405.814 1668.64 406.134 1667.36 406.774C1666.08 407.414 1665.25 408.588 1664.88 410.294H1654.4C1654.72 407.468 1655.65 405.068 1657.2 403.094C1658.8 401.121 1660.85 399.628 1663.36 398.614C1665.87 397.548 1668.64 397.014 1671.68 397.014C1677.65 397.014 1682.35 398.428 1685.76 401.254C1689.23 404.028 1690.96 408.028 1690.96 413.254V421.494C1690.96 423.521 1691.07 425.041 1691.28 426.054C1691.55 427.014 1691.95 427.628 1692.48 427.894C1693.01 428.161 1693.71 428.294 1694.56 428.294H1694.88V437.654H1692.4C1689.52 437.654 1687.12 437.308 1685.2 436.614C1683.28 435.868 1681.87 434.454 1680.96 432.374C1679.57 434.188 1677.79 435.681 1675.6 436.854C1673.41 438.028 1670.91 438.614 1668.08 438.614ZM1670.72 430.134C1672.27 430.134 1673.57 429.814 1674.64 429.174C1675.76 428.481 1676.69 427.548 1677.44 426.374C1678.19 425.148 1678.75 423.788 1679.12 422.294C1678.05 421.974 1676.8 421.681 1675.36 421.414C1673.97 421.094 1672.56 420.934 1671.12 420.934C1669.47 420.934 1668.05 421.361 1666.88 422.214C1665.71 423.014 1665.12 424.188 1665.12 425.734C1665.12 427.014 1665.63 428.081 1666.64 428.934C1667.65 429.734 1669.01 430.134 1670.72 430.134ZM1740.35 437.654V418.134L1721.39 381.654H1734.11L1747.55 409.814H1744.59L1757.95 381.654H1770.51L1751.55 418.134V437.654H1740.35ZM1778.24 438.614C1775.3 438.614 1772.77 438.081 1770.64 437.014C1768.5 435.948 1766.85 434.508 1765.68 432.694C1764.56 430.881 1764 428.881 1764 426.694C1764 422.588 1765.46 419.414 1768.4 417.174C1771.38 414.881 1775.28 413.734 1780.08 413.734C1782.37 413.734 1784.32 413.894 1785.92 414.214C1787.57 414.534 1788.9 414.854 1789.92 415.174V413.254C1789.92 410.641 1789.14 408.748 1787.6 407.574C1786.1 406.401 1784.18 405.814 1781.84 405.814C1780.24 405.814 1778.8 406.134 1777.52 406.774C1776.24 407.414 1775.41 408.588 1775.04 410.294H1764.56C1764.88 407.468 1765.81 405.068 1767.36 403.094C1768.96 401.121 1771.01 399.628 1773.52 398.614C1776.02 397.548 1778.8 397.014 1781.84 397.014C1787.81 397.014 1792.5 398.428 1795.92 401.254C1799.38 404.028 1801.12 408.028 1801.12 413.254V421.494C1801.12 423.521 1801.22 425.041 1801.44 426.054C1801.7 427.014 1802.1 427.628 1802.64 427.894C1803.17 428.161 1803.86 428.294 1804.72 428.294H1805.04V437.654H1802.56C1799.68 437.654 1797.28 437.308 1795.36 436.614C1793.44 435.868 1792.02 434.454 1791.12 432.374C1789.73 434.188 1787.94 435.681 1785.76 436.854C1783.57 438.028 1781.06 438.614 1778.24 438.614ZM1780.88 430.134C1782.42 430.134 1783.73 429.814 1784.8 429.174C1785.92 428.481 1786.85 427.548 1787.6 426.374C1788.34 425.148 1788.9 423.788 1789.28 422.294C1788.21 421.974 1786.96 421.681 1785.52 421.414C1784.13 421.094 1782.72 420.934 1781.28 420.934C1779.62 420.934 1778.21 421.361 1777.04 422.214C1775.86 423.014 1775.28 424.188 1775.28 425.734C1775.28 427.014 1775.78 428.081 1776.8 428.934C1777.81 429.734 1779.17 430.134 1780.88 430.134ZM1803.68 455.254V446.454H1812.32C1813.12 446.454 1813.78 446.348 1814.32 446.134C1814.85 445.974 1815.36 445.601 1815.84 445.014C1816.32 444.428 1816.82 443.494 1817.36 442.214L1820.48 435.334L1820 440.134L1802.72 397.974H1814.88L1825.44 425.014L1836.4 397.974H1848.4L1827.36 446.214C1826.5 448.134 1825.76 449.681 1825.12 450.854C1824.48 452.081 1823.81 452.988 1823.12 453.574C1822.48 454.214 1821.7 454.641 1820.8 454.854C1819.89 455.121 1818.74 455.254 1817.36 455.254H1803.68ZM1867.99 438.614C1863.99 438.614 1860.37 437.734 1857.11 435.974C1853.91 434.214 1851.35 431.761 1849.43 428.614C1847.57 425.468 1846.63 421.868 1846.63 417.814C1846.63 413.708 1847.57 410.108 1849.43 407.014C1851.35 403.868 1853.94 401.414 1857.19 399.654C1860.45 397.894 1864.05 397.014 1867.99 397.014C1871.99 397.014 1875.59 397.894 1878.79 399.654C1882.05 401.414 1884.61 403.868 1886.47 407.014C1888.39 410.108 1889.35 413.708 1889.35 417.814C1889.35 421.868 1888.39 425.468 1886.47 428.614C1884.61 431.761 1882.05 434.214 1878.79 435.974C1875.59 437.734 1871.99 438.614 1867.99 438.614ZM1867.99 428.934C1869.81 428.934 1871.46 428.534 1872.95 427.734C1874.45 426.881 1875.62 425.628 1876.47 423.974C1877.38 422.321 1877.83 420.268 1877.83 417.814C1877.83 415.361 1877.38 413.308 1876.47 411.654C1875.57 410.001 1874.37 408.774 1872.87 407.974C1871.43 407.121 1869.83 406.694 1868.07 406.694C1866.26 406.694 1864.61 407.121 1863.11 407.974C1861.62 408.774 1860.42 410.001 1859.51 411.654C1858.61 413.254 1858.15 415.308 1858.15 417.814C1858.15 420.268 1858.58 422.321 1859.43 423.974C1860.34 425.628 1861.54 426.881 1863.03 427.734C1864.53 428.534 1866.18 428.934 1867.99 428.934ZM1892.19 437.654V424.854H1905.95V437.654H1892.19Z" fill="#CFE0D9"/>
</svg>
